<?xml version="1.0" encoding="UTF-8" ?>
<!DOCTYPE svg PUBLIC "-//W3C//DTD SVG 1.1//EN" "http://www.w3.org/Graphics/SVG/1.1/DTD/svg11.dtd">
<svg width="1080pt" height="1080pt" viewBox="0 0 1080 1080" version="1.1" xmlns="http://www.w3.org/2000/svg">
<g id="#000000ff">
<path fill="#000000" opacity="1.00" d=" M 0.00 0.00 L 1080.00 0.00 L 1080.00 1080.00 L 0.00 1080.00 L 0.00 0.00 M 512.46 14.67 C 495.23 16.10 477.92 17.13 460.97 20.77 C 412.20 27.42 364.81 42.22 319.84 62.00 C 299.64 72.04 279.36 82.06 260.44 94.43 C 231.34 112.55 203.66 133.12 179.28 157.29 C 147.38 187.10 118.67 220.54 95.65 257.72 C 88.95 266.97 84.72 277.72 78.21 287.10 C 74.39 295.72 69.77 303.92 65.29 312.22 C 60.03 321.20 57.89 331.56 52.99 340.72 C 49.07 352.64 43.23 363.85 40.14 376.06 C 34.06 392.75 30.57 410.17 26.03 427.30 C 20.90 452.94 16.43 478.82 15.12 504.98 C 12.97 532.28 14.83 559.66 16.27 586.94 C 20.60 634.72 32.08 681.67 48.46 726.71 C 57.24 748.87 67.45 770.41 78.66 791.43 C 84.22 800.84 88.83 810.82 95.40 819.62 C 104.67 835.53 116.17 850.02 127.34 864.62 C 139.20 881.19 153.76 895.53 167.50 910.49 C 188.97 931.21 211.88 950.45 236.10 967.87 C 249.40 975.76 261.71 985.20 275.24 992.71 C 284.46 997.27 292.96 1003.15 302.37 1007.36 C 316.46 1015.31 331.62 1021.01 346.40 1027.51 C 368.75 1035.27 391.02 1043.52 414.10 1048.91 C 438.41 1054.16 462.73 1059.95 487.62 1061.70 C 501.40 1063.46 515.34 1063.38 529.16 1064.86 C 538.80 1065.98 548.34 1063.39 558.01 1063.86 C 602.02 1063.39 645.59 1055.48 687.94 1043.90 C 706.09 1038.94 723.81 1032.57 741.01 1024.96 C 758.54 1018.14 775.60 1010.19 792.42 1001.80 C 796.93 999.25 801.20 996.30 805.65 993.67 C 881.83 950.18 945.90 886.35 991.79 811.75 C 1011.96 778.22 1028.28 742.46 1041.06 705.50 C 1044.86 690.70 1049.82 676.21 1053.30 661.32 C 1059.28 639.16 1062.15 616.35 1065.26 593.66 C 1066.79 564.97 1069.90 536.11 1066.62 507.43 C 1064.51 479.24 1061.34 451.01 1054.66 423.51 C 1049.45 399.53 1042.04 376.07 1034.13 352.86 C 1022.42 324.50 1010.09 296.22 993.76 270.15 C 965.93 223.44 931.23 180.56 889.91 145.10 C 882.90 139.09 876.15 132.77 868.78 127.20 C 845.62 109.56 821.55 93.03 796.07 78.90 C 709.89 31.94 610.59 8.50 512.46 14.67 Z" />
</g>
<g id="#ffffffff">
<path fill="#ffffff" opacity="1.00" d=" M 512.46 14.67 C 610.59 8.50 709.89 31.94 796.07 78.90 C 821.55 93.03 845.62 109.56 868.78 127.20 C 876.15 132.77 882.90 139.09 889.91 145.10 C 931.23 180.56 965.93 223.44 993.76 270.15 C 1010.09 296.22 1022.42 324.50 1034.13 352.86 C 1042.04 376.07 1049.45 399.53 1054.66 423.51 C 1061.34 451.01 1064.51 479.24 1066.62 507.43 C 1069.90 536.11 1066.79 564.97 1065.26 593.66 C 1062.15 616.35 1059.28 639.16 1053.30 661.32 C 1049.82 676.21 1044.86 690.70 1041.06 705.50 C 1028.28 742.46 1011.96 778.22 991.79 811.75 C 945.90 886.35 881.83 950.18 805.65 993.67 C 801.20 996.30 796.93 999.25 792.42 1001.80 C 775.60 1010.19 758.54 1018.14 741.01 1024.96 C 723.81 1032.57 706.09 1038.94 687.94 1043.90 C 645.59 1055.48 602.02 1063.39 558.01 1063.86 C 548.34 1063.39 538.80 1065.98 529.16 1064.86 C 515.34 1063.38 501.40 1063.46 487.62 1061.70 C 462.73 1059.95 438.41 1054.16 414.10 1048.91 C 391.02 1043.52 368.75 1035.27 346.40 1027.51 C 331.62 1021.01 316.46 1015.31 302.37 1007.36 C 292.96 1003.15 284.46 997.27 275.24 992.71 C 261.71 985.20 249.40 975.76 236.10 967.87 C 211.88 950.45 188.97 931.21 167.50 910.49 C 153.76 895.53 139.20 881.19 127.34 864.62 C 116.17 850.02 104.67 835.53 95.40 819.62 C 88.83 810.82 84.22 800.84 78.66 791.43 C 67.45 770.41 57.24 748.87 48.46 726.71 C 32.08 681.67 20.60 634.72 16.27 586.94 C 14.83 559.66 12.97 532.28 15.12 504.98 C 16.43 478.82 20.90 452.94 26.03 427.30 C 30.57 410.17 34.06 392.75 40.14 376.06 C 43.23 363.85 49.07 352.64 52.99 340.72 C 57.89 331.56 60.03 321.20 65.29 312.22 C 69.77 303.92 74.39 295.72 78.21 287.10 C 84.72 277.72 88.95 266.97 95.65 257.72 C 118.67 220.54 147.38 187.10 179.28 157.29 C 203.66 133.12 231.34 112.55 260.44 94.43 C 279.36 82.06 299.64 72.04 319.84 62.00 C 364.81 42.22 412.20 27.42 460.97 20.77 C 477.92 17.13 495.23 16.10 512.46 14.67 Z" />
</g>
</svg>
